<mxfile host="app.diagrams.net" modified="2023-11-11T15:29:19.950Z" agent="Mozilla/5.0 (Windows NT 10.0; Win64; x64) AppleWebKit/537.36 (KHTML, like Gecko) Chrome/119.0.0.0 Safari/537.36" etag="EgjjZG0avq9P8ziz96wO" version="22.1.0" type="github">
  <diagram id="C5RBs43oDa-KdzZeNtuy" name="Page-1">
    <mxGraphModel dx="1287" dy="984" grid="1" gridSize="10" guides="1" tooltips="1" connect="1" arrows="1" fold="1" page="1" pageScale="1" pageWidth="827" pageHeight="1169" math="0" shadow="0">
      <root>
        <mxCell id="WIyWlLk6GJQsqaUBKTNV-0" />
        <mxCell id="WIyWlLk6GJQsqaUBKTNV-1" parent="WIyWlLk6GJQsqaUBKTNV-0" />
        <mxCell id="5QEOX8sjJscMIuMgwnWP-1" value="" style="edgeStyle=orthogonalEdgeStyle;rounded=0;orthogonalLoop=1;jettySize=auto;html=1;" edge="1" parent="WIyWlLk6GJQsqaUBKTNV-1" source="WIyWlLk6GJQsqaUBKTNV-3" target="5QEOX8sjJscMIuMgwnWP-0">
          <mxGeometry relative="1" as="geometry" />
        </mxCell>
        <mxCell id="WIyWlLk6GJQsqaUBKTNV-3" value="메인페이지" style="rounded=1;whiteSpace=wrap;html=1;fontSize=12;glass=0;strokeWidth=1;shadow=0;" parent="WIyWlLk6GJQsqaUBKTNV-1" vertex="1">
          <mxGeometry x="354" y="80" width="120" height="40" as="geometry" />
        </mxCell>
        <mxCell id="5QEOX8sjJscMIuMgwnWP-3" value="" style="edgeStyle=orthogonalEdgeStyle;rounded=0;orthogonalLoop=1;jettySize=auto;html=1;" edge="1" parent="WIyWlLk6GJQsqaUBKTNV-1" source="5QEOX8sjJscMIuMgwnWP-0" target="5QEOX8sjJscMIuMgwnWP-2">
          <mxGeometry relative="1" as="geometry" />
        </mxCell>
        <mxCell id="5QEOX8sjJscMIuMgwnWP-0" value="라이엇 게임 대회&lt;br&gt;선택" style="rounded=0;whiteSpace=wrap;html=1;" vertex="1" parent="WIyWlLk6GJQsqaUBKTNV-1">
          <mxGeometry x="354" y="150" width="120" height="50" as="geometry" />
        </mxCell>
        <mxCell id="5QEOX8sjJscMIuMgwnWP-5" value="" style="edgeStyle=orthogonalEdgeStyle;rounded=0;orthogonalLoop=1;jettySize=auto;html=1;entryX=0.5;entryY=0;entryDx=0;entryDy=0;" edge="1" parent="WIyWlLk6GJQsqaUBKTNV-1" source="5QEOX8sjJscMIuMgwnWP-2" target="5QEOX8sjJscMIuMgwnWP-8">
          <mxGeometry relative="1" as="geometry">
            <mxPoint x="413.9999999999999" y="310.0000000000001" as="targetPoint" />
            <Array as="points">
              <mxPoint x="414" y="300" />
              <mxPoint x="415" y="390" />
            </Array>
          </mxGeometry>
        </mxCell>
        <mxCell id="5QEOX8sjJscMIuMgwnWP-2" value="현재 진행 중인 대회&lt;br&gt;달력 형식 디스플레이" style="whiteSpace=wrap;html=1;rounded=0;" vertex="1" parent="WIyWlLk6GJQsqaUBKTNV-1">
          <mxGeometry x="354" y="230" width="120" height="60" as="geometry" />
        </mxCell>
        <mxCell id="5QEOX8sjJscMIuMgwnWP-7" value="" style="edgeStyle=orthogonalEdgeStyle;rounded=0;orthogonalLoop=1;jettySize=auto;html=1;exitX=0;exitY=0.5;exitDx=0;exitDy=0;" edge="1" parent="WIyWlLk6GJQsqaUBKTNV-1" source="5QEOX8sjJscMIuMgwnWP-2" target="5QEOX8sjJscMIuMgwnWP-6">
          <mxGeometry relative="1" as="geometry">
            <mxPoint x="354" y="340" as="sourcePoint" />
          </mxGeometry>
        </mxCell>
        <mxCell id="5QEOX8sjJscMIuMgwnWP-11" value="" style="edgeStyle=orthogonalEdgeStyle;rounded=0;orthogonalLoop=1;jettySize=auto;html=1;exitX=1;exitY=0.5;exitDx=0;exitDy=0;" edge="1" parent="WIyWlLk6GJQsqaUBKTNV-1" source="5QEOX8sjJscMIuMgwnWP-2" target="5QEOX8sjJscMIuMgwnWP-10">
          <mxGeometry relative="1" as="geometry">
            <mxPoint x="474" y="340" as="sourcePoint" />
          </mxGeometry>
        </mxCell>
        <mxCell id="5QEOX8sjJscMIuMgwnWP-19" value="" style="edgeStyle=orthogonalEdgeStyle;rounded=0;orthogonalLoop=1;jettySize=auto;html=1;" edge="1" parent="WIyWlLk6GJQsqaUBKTNV-1" source="5QEOX8sjJscMIuMgwnWP-6" target="5QEOX8sjJscMIuMgwnWP-18">
          <mxGeometry relative="1" as="geometry" />
        </mxCell>
        <mxCell id="5QEOX8sjJscMIuMgwnWP-6" value="리그오브레전드&lt;br&gt;대회 일정" style="whiteSpace=wrap;html=1;rounded=0;" vertex="1" parent="WIyWlLk6GJQsqaUBKTNV-1">
          <mxGeometry x="214" y="320" width="120" height="60" as="geometry" />
        </mxCell>
        <mxCell id="5QEOX8sjJscMIuMgwnWP-8" value="전략적 팀 전투(TFT)&lt;br&gt;대회 일정" style="whiteSpace=wrap;html=1;rounded=0;" vertex="1" parent="WIyWlLk6GJQsqaUBKTNV-1">
          <mxGeometry x="354" y="320" width="120" height="60" as="geometry" />
        </mxCell>
        <mxCell id="5QEOX8sjJscMIuMgwnWP-10" value="발로란트&lt;br&gt;대회 일정" style="whiteSpace=wrap;html=1;rounded=0;" vertex="1" parent="WIyWlLk6GJQsqaUBKTNV-1">
          <mxGeometry x="494" y="320" width="120" height="60" as="geometry" />
        </mxCell>
        <mxCell id="5QEOX8sjJscMIuMgwnWP-15" value="" style="edgeStyle=orthogonalEdgeStyle;rounded=0;orthogonalLoop=1;jettySize=auto;html=1;" edge="1" parent="WIyWlLk6GJQsqaUBKTNV-1" source="5QEOX8sjJscMIuMgwnWP-12" target="5QEOX8sjJscMIuMgwnWP-14">
          <mxGeometry relative="1" as="geometry" />
        </mxCell>
        <mxCell id="5QEOX8sjJscMIuMgwnWP-12" value="참가하는 프로 팀 구성&lt;br&gt;디스플레이" style="whiteSpace=wrap;html=1;rounded=0;" vertex="1" parent="WIyWlLk6GJQsqaUBKTNV-1">
          <mxGeometry x="80" y="480" width="120" height="40" as="geometry" />
        </mxCell>
        <mxCell id="5QEOX8sjJscMIuMgwnWP-34" style="edgeStyle=orthogonalEdgeStyle;rounded=0;orthogonalLoop=1;jettySize=auto;html=1;exitX=0.5;exitY=1;exitDx=0;exitDy=0;entryX=0.5;entryY=0;entryDx=0;entryDy=0;" edge="1" parent="WIyWlLk6GJQsqaUBKTNV-1" source="5QEOX8sjJscMIuMgwnWP-14" target="5QEOX8sjJscMIuMgwnWP-27">
          <mxGeometry relative="1" as="geometry">
            <Array as="points">
              <mxPoint x="140" y="670" />
              <mxPoint x="413" y="670" />
            </Array>
          </mxGeometry>
        </mxCell>
        <mxCell id="5QEOX8sjJscMIuMgwnWP-14" value="프로 선수 정보 탭" style="whiteSpace=wrap;html=1;rounded=0;" vertex="1" parent="WIyWlLk6GJQsqaUBKTNV-1">
          <mxGeometry x="80" y="550" width="120" height="45" as="geometry" />
        </mxCell>
        <mxCell id="5QEOX8sjJscMIuMgwnWP-20" value="" style="edgeStyle=orthogonalEdgeStyle;rounded=0;orthogonalLoop=1;jettySize=auto;html=1;" edge="1" parent="WIyWlLk6GJQsqaUBKTNV-1" source="5QEOX8sjJscMIuMgwnWP-18" target="5QEOX8sjJscMIuMgwnWP-12">
          <mxGeometry relative="1" as="geometry" />
        </mxCell>
        <mxCell id="5QEOX8sjJscMIuMgwnWP-22" value="" style="edgeStyle=orthogonalEdgeStyle;rounded=0;orthogonalLoop=1;jettySize=auto;html=1;" edge="1" parent="WIyWlLk6GJQsqaUBKTNV-1" source="5QEOX8sjJscMIuMgwnWP-18" target="5QEOX8sjJscMIuMgwnWP-21">
          <mxGeometry relative="1" as="geometry" />
        </mxCell>
        <mxCell id="5QEOX8sjJscMIuMgwnWP-18" value="대회 선택" style="whiteSpace=wrap;html=1;rounded=0;" vertex="1" parent="WIyWlLk6GJQsqaUBKTNV-1">
          <mxGeometry x="214" y="410" width="120" height="50" as="geometry" />
        </mxCell>
        <mxCell id="5QEOX8sjJscMIuMgwnWP-24" value="" style="edgeStyle=orthogonalEdgeStyle;rounded=0;orthogonalLoop=1;jettySize=auto;html=1;" edge="1" parent="WIyWlLk6GJQsqaUBKTNV-1" source="5QEOX8sjJscMIuMgwnWP-21" target="5QEOX8sjJscMIuMgwnWP-23">
          <mxGeometry relative="1" as="geometry" />
        </mxCell>
        <mxCell id="5QEOX8sjJscMIuMgwnWP-21" value="대회 알림 설정" style="whiteSpace=wrap;html=1;rounded=0;" vertex="1" parent="WIyWlLk6GJQsqaUBKTNV-1">
          <mxGeometry x="214" y="480" width="120" height="40" as="geometry" />
        </mxCell>
        <mxCell id="5QEOX8sjJscMIuMgwnWP-26" value="" style="edgeStyle=orthogonalEdgeStyle;rounded=0;orthogonalLoop=1;jettySize=auto;html=1;" edge="1" parent="WIyWlLk6GJQsqaUBKTNV-1" source="5QEOX8sjJscMIuMgwnWP-23" target="5QEOX8sjJscMIuMgwnWP-25">
          <mxGeometry relative="1" as="geometry" />
        </mxCell>
        <mxCell id="5QEOX8sjJscMIuMgwnWP-23" value="시스템에&lt;br&gt;대회 일정 저장" style="whiteSpace=wrap;html=1;rounded=0;" vertex="1" parent="WIyWlLk6GJQsqaUBKTNV-1">
          <mxGeometry x="214" y="550" width="120" height="45" as="geometry" />
        </mxCell>
        <mxCell id="5QEOX8sjJscMIuMgwnWP-33" style="edgeStyle=orthogonalEdgeStyle;rounded=0;orthogonalLoop=1;jettySize=auto;html=1;exitX=0.5;exitY=1;exitDx=0;exitDy=0;entryX=0.5;entryY=0;entryDx=0;entryDy=0;" edge="1" parent="WIyWlLk6GJQsqaUBKTNV-1" source="5QEOX8sjJscMIuMgwnWP-25" target="5QEOX8sjJscMIuMgwnWP-27">
          <mxGeometry relative="1" as="geometry">
            <Array as="points">
              <mxPoint x="274" y="670" />
              <mxPoint x="413" y="670" />
            </Array>
          </mxGeometry>
        </mxCell>
        <mxCell id="5QEOX8sjJscMIuMgwnWP-25" value="대회 당일&lt;br&gt;푸시 알림 발송" style="whiteSpace=wrap;html=1;rounded=0;" vertex="1" parent="WIyWlLk6GJQsqaUBKTNV-1">
          <mxGeometry x="214" y="620" width="120" height="42.5" as="geometry" />
        </mxCell>
        <mxCell id="5QEOX8sjJscMIuMgwnWP-29" value="" style="edgeStyle=orthogonalEdgeStyle;rounded=0;orthogonalLoop=1;jettySize=auto;html=1;" edge="1" parent="WIyWlLk6GJQsqaUBKTNV-1" source="5QEOX8sjJscMIuMgwnWP-27" target="5QEOX8sjJscMIuMgwnWP-28">
          <mxGeometry relative="1" as="geometry" />
        </mxCell>
        <mxCell id="5QEOX8sjJscMIuMgwnWP-27" value="창 닫기" style="rounded=0;whiteSpace=wrap;html=1;" vertex="1" parent="WIyWlLk6GJQsqaUBKTNV-1">
          <mxGeometry x="353" y="700" width="120" height="60" as="geometry" />
        </mxCell>
        <mxCell id="5QEOX8sjJscMIuMgwnWP-28" value="종료" style="rounded=1;whiteSpace=wrap;html=1;" vertex="1" parent="WIyWlLk6GJQsqaUBKTNV-1">
          <mxGeometry x="353" y="790" width="120" height="60" as="geometry" />
        </mxCell>
        <mxCell id="5QEOX8sjJscMIuMgwnWP-30" value="" style="endArrow=none;dashed=1;html=1;dashPattern=1 3;strokeWidth=2;rounded=0;" edge="1" parent="WIyWlLk6GJQsqaUBKTNV-1">
          <mxGeometry width="50" height="50" relative="1" as="geometry">
            <mxPoint x="413" y="440" as="sourcePoint" />
            <mxPoint x="413" y="380" as="targetPoint" />
          </mxGeometry>
        </mxCell>
        <mxCell id="5QEOX8sjJscMIuMgwnWP-31" value="" style="endArrow=none;dashed=1;html=1;dashPattern=1 3;strokeWidth=2;rounded=0;" edge="1" parent="WIyWlLk6GJQsqaUBKTNV-1">
          <mxGeometry width="50" height="50" relative="1" as="geometry">
            <mxPoint x="553.37" y="440" as="sourcePoint" />
            <mxPoint x="553.37" y="380" as="targetPoint" />
          </mxGeometry>
        </mxCell>
        <mxCell id="5QEOX8sjJscMIuMgwnWP-32" value="하위 항목&amp;nbsp;&lt;br&gt;&#39;리그오브레전드 대회 일정&#39;&lt;br&gt;과 모두 동일" style="text;html=1;strokeColor=none;fillColor=none;align=center;verticalAlign=middle;whiteSpace=wrap;rounded=0;" vertex="1" parent="WIyWlLk6GJQsqaUBKTNV-1">
          <mxGeometry x="364" y="470" width="250" height="30" as="geometry" />
        </mxCell>
        <mxCell id="5QEOX8sjJscMIuMgwnWP-37" style="edgeStyle=orthogonalEdgeStyle;rounded=0;orthogonalLoop=1;jettySize=auto;html=1;exitX=0.5;exitY=1;exitDx=0;exitDy=0;entryX=0.5;entryY=0;entryDx=0;entryDy=0;" edge="1" parent="WIyWlLk6GJQsqaUBKTNV-1" source="5QEOX8sjJscMIuMgwnWP-25" target="5QEOX8sjJscMIuMgwnWP-27">
          <mxGeometry relative="1" as="geometry">
            <mxPoint x="274" y="662" as="sourcePoint" />
            <mxPoint x="413" y="700" as="targetPoint" />
            <Array as="points">
              <mxPoint x="274" y="670" />
              <mxPoint x="413" y="670" />
            </Array>
          </mxGeometry>
        </mxCell>
        <mxCell id="5QEOX8sjJscMIuMgwnWP-38" style="edgeStyle=orthogonalEdgeStyle;rounded=0;orthogonalLoop=1;jettySize=auto;html=1;entryX=0.5;entryY=0;entryDx=0;entryDy=0;" edge="1" target="5QEOX8sjJscMIuMgwnWP-27" parent="WIyWlLk6GJQsqaUBKTNV-1">
          <mxGeometry relative="1" as="geometry">
            <mxPoint x="413" y="520" as="sourcePoint" />
            <mxPoint x="669" y="677.4999999999998" as="targetPoint" />
            <Array as="points">
              <mxPoint x="413" y="540" />
            </Array>
          </mxGeometry>
        </mxCell>
        <mxCell id="5QEOX8sjJscMIuMgwnWP-40" style="edgeStyle=orthogonalEdgeStyle;rounded=0;orthogonalLoop=1;jettySize=auto;html=1;entryX=0.5;entryY=0;entryDx=0;entryDy=0;" edge="1" parent="WIyWlLk6GJQsqaUBKTNV-1" target="5QEOX8sjJscMIuMgwnWP-27">
          <mxGeometry relative="1" as="geometry">
            <mxPoint x="553.37" y="520" as="sourcePoint" />
            <mxPoint x="553.37" y="700" as="targetPoint" />
            <Array as="points">
              <mxPoint x="553" y="670" />
              <mxPoint x="413" y="670" />
            </Array>
          </mxGeometry>
        </mxCell>
      </root>
    </mxGraphModel>
  </diagram>
</mxfile>
